<?xml version="1.0" encoding="UTF-8" standalone="no"?>
<!DOCTYPE svg PUBLIC "-//W3C//DTD SVG 1.1//EN"
 "http://www.w3.org/Graphics/SVG/1.1/DTD/svg11.dtd">
<!-- Generated by graphviz version 2.40.1 (20161225.0304)
 -->
<!-- Title: hdl_example Pages: 1 -->
<svg width="897pt" height="565pt"
 viewBox="0.00 0.00 897.20 565.36" xmlns="http://www.w3.org/2000/svg" xmlns:xlink="http://www.w3.org/1999/xlink">
<g id="graph0" class="graph" transform="scale(1 1) rotate(0) translate(57.6 507.7615)">
<title>hdl_example</title>
<polygon fill="#ffffff" stroke="transparent" points="-57.6,57.6 -57.6,-507.7615 839.6,-507.7615 839.6,57.6 -57.6,57.6"/>
<!-- A -->
<g id="node1" class="node">
<title>A</title>
<ellipse fill="#6495ed" stroke="#6495ed" cx="419" cy="-433.898" rx="27" ry="16.0303"/>
<text text-anchor="middle" x="419" y="-430.198" font-family="Times,serif" font-size="14.00" fill="#000000">0</text>
</g>
<!-- B -->
<g id="node2" class="node">
<title>B</title>
<ellipse fill="#6495ed" stroke="#6495ed" cx="178" cy="-350.3711" rx="27" ry="16.0303"/>
<text text-anchor="middle" x="178" y="-346.6711" font-family="Times,serif" font-size="14.00" fill="#000000">1</text>
</g>
<!-- A&#45;&#45;B -->
<g id="edge1" class="edge">
<title>A&#45;&#45;B</title>
<path fill="none" stroke="#000000" d="M395.4531,-425.737C349.3795,-409.7686 247.7927,-374.5602 201.6425,-358.5652"/>
<text text-anchor="middle" x="324.5" y="-388.4346" font-family="Times,serif" font-size="14.00" fill="#000000">4</text>
</g>
<!-- C -->
<g id="node3" class="node">
<title>C</title>
<ellipse fill="#00ff00" stroke="#00ff00" cx="419" cy="-350.3711" rx="27" ry="16.0303"/>
<text text-anchor="middle" x="419" y="-346.6711" font-family="Times,serif" font-size="14.00" fill="#000000">2</text>
</g>
<!-- A&#45;&#45;C -->
<g id="edge9" class="edge">
<title>A&#45;&#45;C</title>
<path fill="none" stroke="#000000" d="M419,-417.3958C419,-402.7524 419,-381.4721 419,-366.8391"/>
<text text-anchor="middle" x="426" y="-388.4346" font-family="Times,serif" font-size="14.00" fill="#000000">21</text>
</g>
<!-- D -->
<g id="node4" class="node">
<title>D</title>
<ellipse fill="#fa8072" stroke="#fa8072" cx="587" cy="-350.3711" rx="27" ry="16.0303"/>
<text text-anchor="middle" x="587" y="-346.6711" font-family="Times,serif" font-size="14.00" fill="#000000">3</text>
</g>
<!-- A&#45;&#45;D -->
<g id="edge14" class="edge">
<title>A&#45;&#45;D</title>
<path fill="none" stroke="#000000" d="M439.9376,-423.4882C472.2188,-407.4385 533.7822,-376.8301 566.063,-360.7806"/>
<text text-anchor="middle" x="526" y="-388.4346" font-family="Times,serif" font-size="14.00" fill="#000000">92</text>
</g>
<!-- E -->
<g id="node5" class="node">
<title>E</title>
<ellipse fill="#6495ed" stroke="#6495ed" cx="27" cy="-266.8442" rx="27" ry="16.0303"/>
<text text-anchor="middle" x="27" y="-263.1442" font-family="Times,serif" font-size="14.00" fill="#000000">4</text>
</g>
<!-- B&#45;&#45;E -->
<g id="edge2" class="edge">
<title>B&#45;&#45;E</title>
<path fill="none" stroke="#000000" d="M157.8212,-339.4778C145.4425,-332.775 129.2802,-323.9876 115,-316.1076 91.5455,-303.1652 64.6934,-288.0964 46.8828,-278.0659"/>
<text text-anchor="middle" x="122" y="-304.9076" font-family="Times,serif" font-size="14.00" fill="#000000">36</text>
</g>
<!-- F -->
<g id="node6" class="node">
<title>F</title>
<ellipse fill="#da70d6" stroke="#da70d6" cx="139" cy="-266.8442" rx="27" ry="16.0303"/>
<text text-anchor="middle" x="139" y="-263.1442" font-family="Times,serif" font-size="14.00" fill="#000000">5</text>
</g>
<!-- B&#45;&#45;F -->
<g id="edge6" class="edge">
<title>B&#45;&#45;F</title>
<path fill="none" stroke="#000000" d="M162.9249,-336.639C157.4147,-330.8259 151.6448,-323.6544 148,-316.1076 143.0846,-305.93 140.8405,-293.3853 139.8223,-283.5021"/>
<text text-anchor="middle" x="155" y="-304.9076" font-family="Times,serif" font-size="14.00" fill="#000000">40</text>
</g>
<!-- G -->
<g id="node7" class="node">
<title>G</title>
<ellipse fill="#00ffff" stroke="#00ffff" cx="251" cy="-266.8442" rx="27" ry="16.0303"/>
<text text-anchor="middle" x="251" y="-263.1442" font-family="Times,serif" font-size="14.00" fill="#000000">6</text>
</g>
<!-- B&#45;&#45;G -->
<g id="edge7" class="edge">
<title>B&#45;&#45;G</title>
<path fill="none" stroke="#000000" d="M190.7156,-335.8218C204.0326,-320.5845 224.8312,-296.7867 238.1852,-281.507"/>
<text text-anchor="middle" x="229" y="-304.9076" font-family="Times,serif" font-size="14.00" fill="#000000">25</text>
</g>
<!-- H -->
<g id="node8" class="node">
<title>H</title>
<ellipse fill="#ffd700" stroke="#ffd700" cx="363" cy="-266.8442" rx="27" ry="16.0303"/>
<text text-anchor="middle" x="363" y="-263.1442" font-family="Times,serif" font-size="14.00" fill="#000000">7</text>
</g>
<!-- C&#45;&#45;H -->
<g id="edge13" class="edge">
<title>C&#45;&#45;H</title>
<path fill="none" stroke="#000000" d="M408.7287,-335.051C398.6245,-319.98 383.2878,-297.1045 373.2061,-282.0672"/>
<text text-anchor="middle" x="404" y="-304.9076" font-family="Times,serif" font-size="14.00" fill="#000000">91</text>
</g>
<!-- I -->
<g id="node9" class="node">
<title>I</title>
<ellipse fill="#00ff00" stroke="#00ff00" cx="475" cy="-266.8442" rx="27" ry="16.0303"/>
<text text-anchor="middle" x="475" y="-263.1442" font-family="Times,serif" font-size="14.00" fill="#000000">8</text>
</g>
<!-- C&#45;&#45;I -->
<g id="edge10" class="edge">
<title>C&#45;&#45;I</title>
<path fill="none" stroke="#000000" d="M429.2713,-335.051C439.3755,-319.98 454.7122,-297.1045 464.7939,-282.0672"/>
<text text-anchor="middle" x="456.5" y="-304.9076" font-family="Times,serif" font-size="14.00" fill="#000000">2</text>
</g>
<!-- J -->
<g id="node10" class="node">
<title>J</title>
<ellipse fill="#ff4500" stroke="#ff4500" cx="587" cy="-266.8442" rx="27" ry="16.0303"/>
<text text-anchor="middle" x="587" y="-263.1442" font-family="Times,serif" font-size="14.00" fill="#000000">9</text>
</g>
<!-- D&#45;&#45;J -->
<g id="edge19" class="edge">
<title>D&#45;&#45;J</title>
<path fill="none" stroke="#000000" d="M587,-333.8689C587,-319.2255 587,-297.9452 587,-283.3121"/>
<text text-anchor="middle" x="594" y="-304.9076" font-family="Times,serif" font-size="14.00" fill="#000000">11</text>
</g>
<!-- K -->
<g id="node11" class="node">
<title>K</title>
<ellipse fill="#fa8072" stroke="#fa8072" cx="699" cy="-266.8442" rx="27" ry="16.0303"/>
<text text-anchor="middle" x="699" y="-263.1442" font-family="Times,serif" font-size="14.00" fill="#000000">10</text>
</g>
<!-- D&#45;&#45;K -->
<g id="edge15" class="edge">
<title>D&#45;&#45;K</title>
<path fill="none" stroke="#000000" d="M604.0104,-337.6852C625.0613,-321.9859 660.7049,-295.4038 681.8295,-279.6495"/>
<text text-anchor="middle" x="660" y="-304.9076" font-family="Times,serif" font-size="14.00" fill="#000000">43</text>
</g>
<!-- L -->
<g id="node12" class="node">
<title>L</title>
<ellipse fill="#6495ed" stroke="#6495ed" cx="27" cy="-183.3173" rx="27" ry="16.0303"/>
<text text-anchor="middle" x="27" y="-179.6173" font-family="Times,serif" font-size="14.00" fill="#000000">11</text>
</g>
<!-- E&#45;&#45;L -->
<g id="edge3" class="edge">
<title>E&#45;&#45;L</title>
<path fill="none" stroke="#000000" d="M27,-250.342C27,-235.6985 27,-214.4183 27,-199.7852"/>
<text text-anchor="middle" x="34" y="-221.3807" font-family="Times,serif" font-size="14.00" fill="#000000">78</text>
</g>
<!-- M -->
<g id="node13" class="node">
<title>M</title>
<ellipse fill="#00ffff" stroke="#00ffff" cx="251" cy="-183.3173" rx="27" ry="16.0303"/>
<text text-anchor="middle" x="251" y="-179.6173" font-family="Times,serif" font-size="14.00" fill="#000000">12</text>
</g>
<!-- G&#45;&#45;M -->
<g id="edge8" class="edge">
<title>G&#45;&#45;M</title>
<path fill="none" stroke="#000000" d="M251,-250.342C251,-235.6985 251,-214.4183 251,-199.7852"/>
<text text-anchor="middle" x="258" y="-221.3807" font-family="Times,serif" font-size="14.00" fill="#000000">51</text>
</g>
<!-- N -->
<g id="node14" class="node">
<title>N</title>
<ellipse fill="#00ff00" stroke="#00ff00" cx="475" cy="-183.3173" rx="27" ry="16.0303"/>
<text text-anchor="middle" x="475" y="-179.6173" font-family="Times,serif" font-size="14.00" fill="#000000">13</text>
</g>
<!-- I&#45;&#45;N -->
<g id="edge11" class="edge">
<title>I&#45;&#45;N</title>
<path fill="none" stroke="#000000" d="M475,-250.342C475,-235.6985 475,-214.4183 475,-199.7852"/>
<text text-anchor="middle" x="482" y="-221.3807" font-family="Times,serif" font-size="14.00" fill="#000000">93</text>
</g>
<!-- O -->
<g id="node15" class="node">
<title>O</title>
<ellipse fill="#ff4500" stroke="#ff4500" cx="587" cy="-183.3173" rx="27" ry="16.0303"/>
<text text-anchor="middle" x="587" y="-179.6173" font-family="Times,serif" font-size="14.00" fill="#000000">14</text>
</g>
<!-- J&#45;&#45;O -->
<g id="edge20" class="edge">
<title>J&#45;&#45;O</title>
<path fill="none" stroke="#000000" d="M587,-250.342C587,-235.6985 587,-214.4183 587,-199.7852"/>
<text text-anchor="middle" x="594" y="-221.3807" font-family="Times,serif" font-size="14.00" fill="#000000">39</text>
</g>
<!-- P -->
<g id="node16" class="node">
<title>P</title>
<ellipse fill="#fa8072" stroke="#fa8072" cx="699" cy="-183.3173" rx="27" ry="16.0303"/>
<text text-anchor="middle" x="699" y="-179.6173" font-family="Times,serif" font-size="14.00" fill="#000000">15</text>
</g>
<!-- K&#45;&#45;P -->
<g id="edge16" class="edge">
<title>K&#45;&#45;P</title>
<path fill="none" stroke="#000000" d="M699,-250.342C699,-235.6985 699,-214.4183 699,-199.7852"/>
<text text-anchor="middle" x="706" y="-221.3807" font-family="Times,serif" font-size="14.00" fill="#000000">59</text>
</g>
<!-- Q -->
<g id="node17" class="node">
<title>Q</title>
<ellipse fill="#6495ed" stroke="#6495ed" cx="27" cy="-99.7904" rx="27" ry="16.0303"/>
<text text-anchor="middle" x="27" y="-96.0904" font-family="Times,serif" font-size="14.00" fill="#000000">16</text>
</g>
<!-- L&#45;&#45;Q -->
<g id="edge4" class="edge">
<title>L&#45;&#45;Q</title>
<path fill="none" stroke="#000000" d="M27,-166.815C27,-152.1716 27,-130.8914 27,-116.2583"/>
<text text-anchor="middle" x="34" y="-137.8538" font-family="Times,serif" font-size="14.00" fill="#000000">46</text>
</g>
<!-- R -->
<g id="node18" class="node">
<title>R</title>
<ellipse fill="#00ff00" stroke="#00ff00" cx="475" cy="-99.7904" rx="27" ry="16.0303"/>
<text text-anchor="middle" x="475" y="-96.0904" font-family="Times,serif" font-size="14.00" fill="#000000">17</text>
</g>
<!-- N&#45;&#45;R -->
<g id="edge12" class="edge">
<title>N&#45;&#45;R</title>
<path fill="none" stroke="#000000" d="M475,-166.815C475,-152.1716 475,-130.8914 475,-116.2583"/>
<text text-anchor="middle" x="482" y="-137.8538" font-family="Times,serif" font-size="14.00" fill="#000000">20</text>
</g>
<!-- S -->
<g id="node19" class="node">
<title>S</title>
<ellipse fill="#fa8072" stroke="#fa8072" cx="643" cy="-99.7904" rx="27" ry="16.0303"/>
<text text-anchor="middle" x="643" y="-96.0904" font-family="Times,serif" font-size="14.00" fill="#000000">18</text>
</g>
<!-- P&#45;&#45;S -->
<g id="edge17" class="edge">
<title>P&#45;&#45;S</title>
<path fill="none" stroke="#000000" d="M688.6924,-167.9687C684.7238,-162.0574 680.1498,-155.2423 676,-149.0538 668.3174,-137.5969 659.6359,-124.6364 653.1063,-114.8855"/>
<text text-anchor="middle" x="679.5" y="-137.8538" font-family="Times,serif" font-size="14.00" fill="#000000">6</text>
</g>
<!-- T -->
<g id="node20" class="node">
<title>T</title>
<ellipse fill="#ff69b4" stroke="#ff69b4" cx="755" cy="-99.7904" rx="27" ry="16.0303"/>
<text text-anchor="middle" x="755" y="-96.0904" font-family="Times,serif" font-size="14.00" fill="#000000">19</text>
</g>
<!-- P&#45;&#45;T -->
<g id="edge18" class="edge">
<title>P&#45;&#45;T</title>
<path fill="none" stroke="#000000" d="M709.2713,-167.9972C719.3755,-152.9262 734.7122,-130.0507 744.7939,-115.0134"/>
<text text-anchor="middle" x="739" y="-137.8538" font-family="Times,serif" font-size="14.00" fill="#000000">70</text>
</g>
<!-- U -->
<g id="node21" class="node">
<title>U</title>
<ellipse fill="#6495ed" stroke="#6495ed" cx="27" cy="-16.2635" rx="27" ry="16.0303"/>
<text text-anchor="middle" x="27" y="-12.5635" font-family="Times,serif" font-size="14.00" fill="#000000">20</text>
</g>
<!-- Q&#45;&#45;U -->
<g id="edge5" class="edge">
<title>Q&#45;&#45;U</title>
<path fill="none" stroke="#000000" d="M27,-83.2881C27,-68.6447 27,-47.3644 27,-32.7314"/>
<text text-anchor="middle" x="34" y="-54.3269" font-family="Times,serif" font-size="14.00" fill="#000000">10</text>
</g>
</g>
</svg>
