<?xml version="1.0" encoding="UTF-8" standalone="no"?>
<!DOCTYPE svg PUBLIC "-//W3C//DTD SVG 1.1//EN"
 "http://www.w3.org/Graphics/SVG/1.1/DTD/svg11.dtd">
<!-- Generated by graphviz version 2.40.1 (20161225.0304)
 -->
<!-- Title: hdl_array Pages: 1 -->
<svg width="563pt" height="44pt"
 viewBox="0.00 0.00 563.00 44.00" xmlns="http://www.w3.org/2000/svg" xmlns:xlink="http://www.w3.org/1999/xlink">
<g id="graph0" class="graph" transform="scale(1 1) rotate(0) translate(4 40)">
<title>hdl_array</title>
<polygon fill="#ffffff" stroke="transparent" points="-4,4 -4,-40 559,-40 559,4 -4,4"/>
<!-- array -->
<g id="node1" class="node">
<title>array</title>
<polygon fill="#6495ed" stroke="transparent" points="8.5,-7 8.5,-28 29.5,-28 29.5,-7 8.5,-7"/>
<polygon fill="none" stroke="#000000" points="8.5,-7 8.5,-28 29.5,-28 29.5,-7 8.5,-7"/>
<text text-anchor="start" x="11.5" y="-13.8" font-family="Times,serif" font-size="14.00" fill="#000000"> 4 </text>
<polygon fill="#6495ed" stroke="transparent" points="29.5,-7 29.5,-28 57.5,-28 57.5,-7 29.5,-7"/>
<polygon fill="none" stroke="#000000" points="29.5,-7 29.5,-28 57.5,-28 57.5,-7 29.5,-7"/>
<text text-anchor="start" x="32.5" y="-13.8" font-family="Times,serif" font-size="14.00" fill="#000000"> 36 </text>
<polygon fill="#6495ed" stroke="transparent" points="57.5,-7 57.5,-28 85.5,-28 85.5,-7 57.5,-7"/>
<polygon fill="none" stroke="#000000" points="57.5,-7 57.5,-28 85.5,-28 85.5,-7 57.5,-7"/>
<text text-anchor="start" x="60.5" y="-13.8" font-family="Times,serif" font-size="14.00" fill="#000000"> 78 </text>
<polygon fill="#6495ed" stroke="transparent" points="85.5,-7 85.5,-28 113.5,-28 113.5,-7 85.5,-7"/>
<polygon fill="none" stroke="#000000" points="85.5,-7 85.5,-28 113.5,-28 113.5,-7 85.5,-7"/>
<text text-anchor="start" x="88.5" y="-13.8" font-family="Times,serif" font-size="14.00" fill="#000000"> 46 </text>
<polygon fill="#6495ed" stroke="transparent" points="113.5,-7 113.5,-28 141.5,-28 141.5,-7 113.5,-7"/>
<polygon fill="none" stroke="#000000" points="113.5,-7 113.5,-28 141.5,-28 141.5,-7 113.5,-7"/>
<text text-anchor="start" x="116.5" y="-13.8" font-family="Times,serif" font-size="14.00" fill="#000000"> 10 </text>
<polygon fill="#da70d6" stroke="transparent" points="141.5,-7 141.5,-28 169.5,-28 169.5,-7 141.5,-7"/>
<polygon fill="none" stroke="#000000" points="141.5,-7 141.5,-28 169.5,-28 169.5,-7 141.5,-7"/>
<text text-anchor="start" x="144.5" y="-13.8" font-family="Times,serif" font-size="14.00" fill="#000000"> 40 </text>
<polygon fill="#00ffff" stroke="transparent" points="169.5,-7 169.5,-28 197.5,-28 197.5,-7 169.5,-7"/>
<polygon fill="none" stroke="#000000" points="169.5,-7 169.5,-28 197.5,-28 197.5,-7 169.5,-7"/>
<text text-anchor="start" x="172.5" y="-13.8" font-family="Times,serif" font-size="14.00" fill="#000000"> 25 </text>
<polygon fill="#00ffff" stroke="transparent" points="197.5,-7 197.5,-28 225.5,-28 225.5,-7 197.5,-7"/>
<polygon fill="none" stroke="#000000" points="197.5,-7 197.5,-28 225.5,-28 225.5,-7 197.5,-7"/>
<text text-anchor="start" x="200.5" y="-13.8" font-family="Times,serif" font-size="14.00" fill="#000000"> 51 </text>
<polygon fill="#00ff00" stroke="transparent" points="225.5,-7 225.5,-28 253.5,-28 253.5,-7 225.5,-7"/>
<polygon fill="none" stroke="#000000" points="225.5,-7 225.5,-28 253.5,-28 253.5,-7 225.5,-7"/>
<text text-anchor="start" x="228.5" y="-13.8" font-family="Times,serif" font-size="14.00" fill="#000000"> 21 </text>
<polygon fill="#00ff00" stroke="transparent" points="253.5,-7 253.5,-28 274.5,-28 274.5,-7 253.5,-7"/>
<polygon fill="none" stroke="#000000" points="253.5,-7 253.5,-28 274.5,-28 274.5,-7 253.5,-7"/>
<text text-anchor="start" x="256.5" y="-13.8" font-family="Times,serif" font-size="14.00" fill="#000000"> 2 </text>
<polygon fill="#00ff00" stroke="transparent" points="274.5,-7 274.5,-28 302.5,-28 302.5,-7 274.5,-7"/>
<polygon fill="none" stroke="#000000" points="274.5,-7 274.5,-28 302.5,-28 302.5,-7 274.5,-7"/>
<text text-anchor="start" x="277.5" y="-13.8" font-family="Times,serif" font-size="14.00" fill="#000000"> 93 </text>
<polygon fill="#00ff00" stroke="transparent" points="302.5,-7 302.5,-28 330.5,-28 330.5,-7 302.5,-7"/>
<polygon fill="none" stroke="#000000" points="302.5,-7 302.5,-28 330.5,-28 330.5,-7 302.5,-7"/>
<text text-anchor="start" x="305.5" y="-13.8" font-family="Times,serif" font-size="14.00" fill="#000000"> 20 </text>
<polygon fill="#ffd700" stroke="transparent" points="330.5,-7 330.5,-28 358.5,-28 358.5,-7 330.5,-7"/>
<polygon fill="none" stroke="#000000" points="330.5,-7 330.5,-28 358.5,-28 358.5,-7 330.5,-7"/>
<text text-anchor="start" x="333.5" y="-13.8" font-family="Times,serif" font-size="14.00" fill="#000000"> 91 </text>
<polygon fill="#fa8072" stroke="transparent" points="358.5,-7 358.5,-28 386.5,-28 386.5,-7 358.5,-7"/>
<polygon fill="none" stroke="#000000" points="358.5,-7 358.5,-28 386.5,-28 386.5,-7 358.5,-7"/>
<text text-anchor="start" x="361.5" y="-13.8" font-family="Times,serif" font-size="14.00" fill="#000000"> 92 </text>
<polygon fill="#fa8072" stroke="transparent" points="386.5,-7 386.5,-28 414.5,-28 414.5,-7 386.5,-7"/>
<polygon fill="none" stroke="#000000" points="386.5,-7 386.5,-28 414.5,-28 414.5,-7 386.5,-7"/>
<text text-anchor="start" x="389.5" y="-13.8" font-family="Times,serif" font-size="14.00" fill="#000000"> 43 </text>
<polygon fill="#fa8072" stroke="transparent" points="414.5,-7 414.5,-28 442.5,-28 442.5,-7 414.5,-7"/>
<polygon fill="none" stroke="#000000" points="414.5,-7 414.5,-28 442.5,-28 442.5,-7 414.5,-7"/>
<text text-anchor="start" x="417.5" y="-13.8" font-family="Times,serif" font-size="14.00" fill="#000000"> 59 </text>
<polygon fill="#fa8072" stroke="transparent" points="442.5,-7 442.5,-28 463.5,-28 463.5,-7 442.5,-7"/>
<polygon fill="none" stroke="#000000" points="442.5,-7 442.5,-28 463.5,-28 463.5,-7 442.5,-7"/>
<text text-anchor="start" x="445.5" y="-13.8" font-family="Times,serif" font-size="14.00" fill="#000000"> 6 </text>
<polygon fill="#ff69b4" stroke="transparent" points="463.5,-7 463.5,-28 491.5,-28 491.5,-7 463.5,-7"/>
<polygon fill="none" stroke="#000000" points="463.5,-7 463.5,-28 491.5,-28 491.5,-7 463.5,-7"/>
<text text-anchor="start" x="466.5" y="-13.8" font-family="Times,serif" font-size="14.00" fill="#000000"> 70 </text>
<polygon fill="#ff4500" stroke="transparent" points="491.5,-7 491.5,-28 519.5,-28 519.5,-7 491.5,-7"/>
<polygon fill="none" stroke="#000000" points="491.5,-7 491.5,-28 519.5,-28 519.5,-7 491.5,-7"/>
<text text-anchor="start" x="494.5" y="-13.8" font-family="Times,serif" font-size="14.00" fill="#000000"> 11 </text>
<polygon fill="#ff4500" stroke="transparent" points="519.5,-7 519.5,-28 547.5,-28 547.5,-7 519.5,-7"/>
<polygon fill="none" stroke="#000000" points="519.5,-7 519.5,-28 547.5,-28 547.5,-7 519.5,-7"/>
<text text-anchor="start" x="522.5" y="-13.8" font-family="Times,serif" font-size="14.00" fill="#000000"> 39 </text>
</g>
</g>
</svg>
