<?xml version="1.0" encoding="UTF-8" standalone="no"?>
<!DOCTYPE svg PUBLIC "-//W3C//DTD SVG 1.1//EN"
 "http://www.w3.org/Graphics/SVG/1.1/DTD/svg11.dtd">
<!-- Generated by graphviz version 2.40.1 (20161225.0304)
 -->
<!-- Title: hdl_array Pages: 1 -->
<svg width="588pt" height="44pt"
 viewBox="0.00 0.00 588.00 44.00" xmlns="http://www.w3.org/2000/svg" xmlns:xlink="http://www.w3.org/1999/xlink">
<g id="graph0" class="graph" transform="scale(1 1) rotate(0) translate(4 40)">
<title>hdl_array</title>
<polygon fill="#ffffff" stroke="transparent" points="-4,4 -4,-40 584,-40 584,4 -4,4"/>
<!-- array -->
<g id="node1" class="node">
<title>array</title>
<polygon fill="#c0c0c0" stroke="transparent" points="8,-7 8,-28 33,-28 33,-7 8,-7"/>
<polygon fill="none" stroke="#000000" points="8,-7 8,-28 33,-28 33,-7 8,-7"/>
<text text-anchor="start" x="11" y="-13.8" font-family="Times,serif" font-size="14.00" fill="#000000"> &#45;1 </text>
<polygon fill="#6495ed" stroke="transparent" points="33,-7 33,-28 54,-28 54,-7 33,-7"/>
<polygon fill="none" stroke="#000000" points="33,-7 33,-28 54,-28 54,-7 33,-7"/>
<text text-anchor="start" x="36" y="-13.8" font-family="Times,serif" font-size="14.00" fill="#000000"> 4 </text>
<polygon fill="#6495ed" stroke="transparent" points="54,-7 54,-28 82,-28 82,-7 54,-7"/>
<polygon fill="none" stroke="#000000" points="54,-7 54,-28 82,-28 82,-7 54,-7"/>
<text text-anchor="start" x="57" y="-13.8" font-family="Times,serif" font-size="14.00" fill="#000000"> 36 </text>
<polygon fill="#6495ed" stroke="transparent" points="82,-7 82,-28 110,-28 110,-7 82,-7"/>
<polygon fill="none" stroke="#000000" points="82,-7 82,-28 110,-28 110,-7 82,-7"/>
<text text-anchor="start" x="85" y="-13.8" font-family="Times,serif" font-size="14.00" fill="#000000"> 78 </text>
<polygon fill="#6495ed" stroke="transparent" points="110,-7 110,-28 138,-28 138,-7 110,-7"/>
<polygon fill="none" stroke="#000000" points="110,-7 110,-28 138,-28 138,-7 110,-7"/>
<text text-anchor="start" x="113" y="-13.8" font-family="Times,serif" font-size="14.00" fill="#000000"> 46 </text>
<polygon fill="#6495ed" stroke="transparent" points="138,-7 138,-28 166,-28 166,-7 138,-7"/>
<polygon fill="none" stroke="#000000" points="138,-7 138,-28 166,-28 166,-7 138,-7"/>
<text text-anchor="start" x="141" y="-13.8" font-family="Times,serif" font-size="14.00" fill="#000000"> 10 </text>
<polygon fill="#da70d6" stroke="transparent" points="166,-7 166,-28 194,-28 194,-7 166,-7"/>
<polygon fill="none" stroke="#000000" points="166,-7 166,-28 194,-28 194,-7 166,-7"/>
<text text-anchor="start" x="169" y="-13.8" font-family="Times,serif" font-size="14.00" fill="#000000"> 40 </text>
<polygon fill="#00ffff" stroke="transparent" points="194,-7 194,-28 222,-28 222,-7 194,-7"/>
<polygon fill="none" stroke="#000000" points="194,-7 194,-28 222,-28 222,-7 194,-7"/>
<text text-anchor="start" x="197" y="-13.8" font-family="Times,serif" font-size="14.00" fill="#000000"> 25 </text>
<polygon fill="#00ffff" stroke="transparent" points="222,-7 222,-28 250,-28 250,-7 222,-7"/>
<polygon fill="none" stroke="#000000" points="222,-7 222,-28 250,-28 250,-7 222,-7"/>
<text text-anchor="start" x="225" y="-13.8" font-family="Times,serif" font-size="14.00" fill="#000000"> 51 </text>
<polygon fill="#00ff00" stroke="transparent" points="250,-7 250,-28 278,-28 278,-7 250,-7"/>
<polygon fill="none" stroke="#000000" points="250,-7 250,-28 278,-28 278,-7 250,-7"/>
<text text-anchor="start" x="253" y="-13.8" font-family="Times,serif" font-size="14.00" fill="#000000"> 21 </text>
<polygon fill="#00ff00" stroke="transparent" points="278,-7 278,-28 299,-28 299,-7 278,-7"/>
<polygon fill="none" stroke="#000000" points="278,-7 278,-28 299,-28 299,-7 278,-7"/>
<text text-anchor="start" x="281" y="-13.8" font-family="Times,serif" font-size="14.00" fill="#000000"> 2 </text>
<polygon fill="#00ff00" stroke="transparent" points="299,-7 299,-28 327,-28 327,-7 299,-7"/>
<polygon fill="none" stroke="#000000" points="299,-7 299,-28 327,-28 327,-7 299,-7"/>
<text text-anchor="start" x="302" y="-13.8" font-family="Times,serif" font-size="14.00" fill="#000000"> 93 </text>
<polygon fill="#00ff00" stroke="transparent" points="327,-7 327,-28 355,-28 355,-7 327,-7"/>
<polygon fill="none" stroke="#000000" points="327,-7 327,-28 355,-28 355,-7 327,-7"/>
<text text-anchor="start" x="330" y="-13.8" font-family="Times,serif" font-size="14.00" fill="#000000"> 20 </text>
<polygon fill="#ffd700" stroke="transparent" points="355,-7 355,-28 383,-28 383,-7 355,-7"/>
<polygon fill="none" stroke="#000000" points="355,-7 355,-28 383,-28 383,-7 355,-7"/>
<text text-anchor="start" x="358" y="-13.8" font-family="Times,serif" font-size="14.00" fill="#000000"> 91 </text>
<polygon fill="#fa8072" stroke="transparent" points="383,-7 383,-28 411,-28 411,-7 383,-7"/>
<polygon fill="none" stroke="#000000" points="383,-7 383,-28 411,-28 411,-7 383,-7"/>
<text text-anchor="start" x="386" y="-13.8" font-family="Times,serif" font-size="14.00" fill="#000000"> 92 </text>
<polygon fill="#fa8072" stroke="transparent" points="411,-7 411,-28 439,-28 439,-7 411,-7"/>
<polygon fill="none" stroke="#000000" points="411,-7 411,-28 439,-28 439,-7 411,-7"/>
<text text-anchor="start" x="414" y="-13.8" font-family="Times,serif" font-size="14.00" fill="#000000"> 43 </text>
<polygon fill="#fa8072" stroke="transparent" points="439,-7 439,-28 467,-28 467,-7 439,-7"/>
<polygon fill="none" stroke="#000000" points="439,-7 439,-28 467,-28 467,-7 439,-7"/>
<text text-anchor="start" x="442" y="-13.8" font-family="Times,serif" font-size="14.00" fill="#000000"> 59 </text>
<polygon fill="#fa8072" stroke="transparent" points="467,-7 467,-28 488,-28 488,-7 467,-7"/>
<polygon fill="none" stroke="#000000" points="467,-7 467,-28 488,-28 488,-7 467,-7"/>
<text text-anchor="start" x="470" y="-13.8" font-family="Times,serif" font-size="14.00" fill="#000000"> 6 </text>
<polygon fill="#ff69b4" stroke="transparent" points="488,-7 488,-28 516,-28 516,-7 488,-7"/>
<polygon fill="none" stroke="#000000" points="488,-7 488,-28 516,-28 516,-7 488,-7"/>
<text text-anchor="start" x="491" y="-13.8" font-family="Times,serif" font-size="14.00" fill="#000000"> 70 </text>
<polygon fill="#ff4500" stroke="transparent" points="516,-7 516,-28 544,-28 544,-7 516,-7"/>
<polygon fill="none" stroke="#000000" points="516,-7 516,-28 544,-28 544,-7 516,-7"/>
<text text-anchor="start" x="519" y="-13.8" font-family="Times,serif" font-size="14.00" fill="#000000"> 11 </text>
<polygon fill="#ff4500" stroke="transparent" points="544,-7 544,-28 572,-28 572,-7 544,-7"/>
<polygon fill="none" stroke="#000000" points="544,-7 544,-28 572,-28 572,-7 544,-7"/>
<text text-anchor="start" x="547" y="-13.8" font-family="Times,serif" font-size="14.00" fill="#000000"> 39 </text>
</g>
</g>
</svg>
